<svg width="24" height="24" viewBox="0 0 24 24" fill="none" xmlns="http://www.w3.org/2000/svg">
<g id="bell">
<mask id="mask0" mask-type="alpha" maskUnits="userSpaceOnUse" x="3" y="2" width="18" height="20">
<path id="bell_2" fill-rule="evenodd" clip-rule="evenodd" d="M20.2659 15.9955C20.3174 16.0496 20.3668 16.1016 20.4137 16.152C20.648 16.4035 20.7519 16.7051 20.75 17C20.7461 17.6406 20.243 18.25 19.4961 18.25H4.5039C3.75703 18.25 3.25429 17.6406 3.25 17C3.24804 16.7051 3.35195 16.4039 3.58632 16.152C3.6332 16.1016 3.68261 16.0496 3.73406 15.9955C4.51098 15.1788 5.75312 13.8729 5.75312 10.125C5.75312 7.08984 7.88125 4.66016 10.7508 4.06406V3.25C10.7508 2.55977 11.3102 2 12 2C12.6898 2 13.2492 2.55977 13.2492 3.25V4.06406C16.1187 4.66016 18.2469 7.08984 18.2469 10.125C18.2469 13.8729 19.489 15.1788 20.2659 15.9955ZM14.4988 19.5C14.4988 20.8809 13.3797 22 12 22C10.6203 22 9.50117 20.8809 9.50117 19.5H14.4988Z" fill="white"/>
</mask>
<g mask="url(#mask0)">
<g id="&#240;&#159;&#142;&#168; color">
<rect id="&#240;&#159;&#142;&#168; Color" width="24" height="24" fill="black"/>
</g>
</g>
</g>
</svg>
