<svg width="24" height="24" viewBox="0 0 24 24" fill="none" xmlns="http://www.w3.org/2000/svg">
<g id="book-reader">
<mask id="mask0" mask-type="alpha" maskUnits="userSpaceOnUse" x="2" y="2" width="20" height="20">
<path id="book-reader_2" fill-rule="evenodd" clip-rule="evenodd" d="M15.7232 5.74269C15.7232 3.67563 14.0476 2 11.9805 2C9.91345 2 8.23782 3.67563 8.23782 5.74269C8.23782 7.80975 9.91345 9.48538 11.9805 9.48538C14.0476 9.48538 15.7232 7.80975 15.7232 5.74269ZM11.1068 11.3996C8.79376 9.98363 5.04717 9.59454 3.16179 9.48733C2.52827 9.45146 2 9.93411 2 10.5435V19.2296C2 19.7883 2.45185 20.2542 3.03275 20.2842C4.73489 20.3735 8.17856 20.7006 10.5587 21.8994C10.924 22.0834 11.3571 21.8327 11.3571 21.4366V11.8464C11.3567 11.6643 11.2667 11.4975 11.1068 11.3996ZM12.8546 11.3996C15.1673 9.98363 18.9142 9.59415 20.7992 9.48733C21.4327 9.45146 21.961 9.93411 21.9614 10.5435V19.2304C21.9614 19.7891 21.5096 20.255 20.9287 20.2854C19.2269 20.3747 15.7852 20.7018 13.4055 21.8994C13.039 22.0838 12.6047 21.8327 12.6047 21.4355V11.853C12.6047 11.671 12.6947 11.4975 12.8546 11.3996Z" fill="white"/>
</mask>
<g mask="url(#mask0)">
<g id="&#240;&#159;&#142;&#168; color">
<rect id="&#240;&#159;&#142;&#168; Color" width="24" height="24" fill="black"/>
</g>
</g>
</g>
</svg>
