<svg width="24" height="24" viewBox="0 0 24 24" fill="none" xmlns="http://www.w3.org/2000/svg">
<g id="cut">
<mask id="mask0" mask-type="alpha" maskUnits="userSpaceOnUse" x="3" y="3" width="18" height="18">
<path id="cut_2" fill-rule="evenodd" clip-rule="evenodd" d="M14.1117 12L20.6125 5.49883C20.7957 5.31562 20.7957 5.01875 20.6125 4.83594C19.3312 3.55469 17.2535 3.55469 15.9723 4.83594L11.4602 9.34844L10.4891 8.37734C10.6574 7.95078 10.75 7.48633 10.75 7C10.75 4.92891 9.07109 3.25 7 3.25C4.92891 3.25 3.25 4.92891 3.25 7C3.25 9.07109 4.92891 10.75 7 10.75C7.17734 10.75 7.35117 10.7375 7.52187 10.7137L8.8082 12L7.52187 13.2863C7.35117 13.2625 7.17695 13.25 7 13.25C4.92891 13.25 3.25 14.9289 3.25 17C3.25 19.0711 4.92891 20.75 7 20.75C9.07109 20.75 10.75 19.0711 10.75 17C10.75 16.5137 10.6574 16.0492 10.4891 15.6227L11.4602 14.6516L15.9723 19.1641C17.2535 20.4453 19.3312 20.4453 20.6125 19.1641C20.7957 18.9812 20.7957 18.6844 20.6125 18.5012L14.1117 12ZM7 8.25C6.31094 8.25 5.75 7.68906 5.75 7C5.75 6.31094 6.31094 5.75 7 5.75C7.68906 5.75 8.25 6.31094 8.25 7C8.25 7.68906 7.68906 8.25 7 8.25ZM5.75 17C5.75 17.6891 6.31094 18.25 7 18.25C7.68906 18.25 8.25 17.6891 8.25 17C8.25 16.3109 7.68906 15.75 7 15.75C6.31094 15.75 5.75 16.3109 5.75 17Z" fill="white"/>
</mask>
<g mask="url(#mask0)">
<g id="&#240;&#159;&#142;&#168; color">
<rect id="&#240;&#159;&#142;&#168; Color" width="24" height="24" fill="black"/>
</g>
</g>
</g>
</svg>
