<svg width="24" height="24" viewBox="0 0 24 24" fill="none" xmlns="http://www.w3.org/2000/svg">
<g id="film">
<mask id="mask0" mask-type="alpha" maskUnits="userSpaceOnUse" x="2" y="4" width="20" height="16">
<path id="film_2" fill-rule="evenodd" clip-rule="evenodd" d="M21.0625 4.5H20.75V5.28125C20.75 5.53906 20.5391 5.75 20.2812 5.75H18.7188C18.4609 5.75 18.25 5.53906 18.25 5.28125V4.5H5.75V5.28125C5.75 5.53906 5.53906 5.75 5.28125 5.75H3.71875C3.46094 5.75 3.25 5.53906 3.25 5.28125V4.5H2.9375C2.41797 4.5 2 4.91797 2 5.4375V18.5625C2 19.082 2.41797 19.5 2.9375 19.5H3.25V18.7188C3.25 18.4609 3.46094 18.25 3.71875 18.25H5.28125C5.53906 18.25 5.75 18.4609 5.75 18.7188V19.5H18.25V18.7188C18.25 18.4609 18.4609 18.25 18.7188 18.25H20.2812C20.5391 18.25 20.75 18.4609 20.75 18.7188V19.5H21.0625C21.582 19.5 22 19.082 22 18.5625V5.4375C22 4.91797 21.582 4.5 21.0625 4.5ZM5.75 16.5312C5.75 16.7891 5.53906 17 5.28125 17H3.71875C3.46094 17 3.25 16.7891 3.25 16.5312V14.9688C3.25 14.7109 3.46094 14.5 3.71875 14.5H5.28125C5.53906 14.5 5.75 14.7109 5.75 14.9688V16.5312ZM5.28125 13.25C5.53906 13.25 5.75 13.0391 5.75 12.7812V11.2188C5.75 10.9609 5.53906 10.75 5.28125 10.75H3.71875C3.46094 10.75 3.25 10.9609 3.25 11.2188V12.7812C3.25 13.0391 3.46094 13.25 3.71875 13.25H5.28125ZM5.75 9.03125C5.75 9.28906 5.53906 9.5 5.28125 9.5H3.71875C3.46094 9.5 3.25 9.28906 3.25 9.03125V7.46875C3.25 7.21094 3.46094 7 3.71875 7H5.28125C5.53906 7 5.75 7.21094 5.75 7.46875V9.03125ZM15.9062 17.625C16.1641 17.625 16.375 17.4141 16.375 17.1562V13.4062C16.375 13.1484 16.1641 12.9375 15.9062 12.9375H8.09375C7.83594 12.9375 7.625 13.1484 7.625 13.4062V17.1562C7.625 17.4141 7.83594 17.625 8.09375 17.625H15.9062ZM16.375 10.5938C16.375 10.8516 16.1641 11.0625 15.9062 11.0625H8.09375C7.83594 11.0625 7.625 10.8516 7.625 10.5938V6.84375C7.625 6.58594 7.83594 6.375 8.09375 6.375H15.9062C16.1641 6.375 16.375 6.58594 16.375 6.84375V10.5938ZM20.2812 17C20.5391 17 20.75 16.7891 20.75 16.5312V14.9688C20.75 14.7109 20.5391 14.5 20.2812 14.5H18.7188C18.4609 14.5 18.25 14.7109 18.25 14.9688V16.5312C18.25 16.7891 18.4609 17 18.7188 17H20.2812ZM20.75 12.7812C20.75 13.0391 20.5391 13.25 20.2812 13.25H18.7188C18.4609 13.25 18.25 13.0391 18.25 12.7812V11.2188C18.25 10.9609 18.4609 10.75 18.7188 10.75H20.2812C20.5391 10.75 20.75 10.9609 20.75 11.2188V12.7812ZM20.2812 9.5C20.5391 9.5 20.75 9.28906 20.75 9.03125V7.46875C20.75 7.21094 20.5391 7 20.2812 7H18.7188C18.4609 7 18.25 7.21094 18.25 7.46875V9.03125C18.25 9.28906 18.4609 9.5 18.7188 9.5H20.2812Z" fill="white"/>
</mask>
<g mask="url(#mask0)">
<g id="&#240;&#159;&#142;&#168; color">
<rect id="&#240;&#159;&#142;&#168; Color" width="24" height="24" fill="black"/>
</g>
</g>
</g>
</svg>
