<svg width="24" height="24" viewBox="0 0 24 24" fill="none" xmlns="http://www.w3.org/2000/svg">
<g id="gamepad">
<mask id="mask0" mask-type="alpha" maskUnits="userSpaceOnUse" x="2" y="7" width="20" height="10">
<path id="gamepad_2" fill-rule="evenodd" clip-rule="evenodd" d="M7 7H17C19.7625 7 21.9969 9.2375 21.9969 12C21.9969 14.7625 19.7594 17 16.9969 17C15.6 17 14.3344 16.425 13.4281 15.5H10.5688C9.6625 16.425 8.4 17 7 17C4.2375 17 2 14.7625 2 12C2 9.2375 4.2375 7 7 7ZM9.625 13C9.83125 13 10 12.8313 10 12.625V11.375C10 11.1687 9.83125 11 9.625 11H8V9.375C8 9.16875 7.83125 9 7.625 9H6.375C6.16875 9 6 9.16875 6 9.375V11H4.375C4.16875 11 4 11.1687 4 11.375V12.625C4 12.8313 4.16875 13 4.375 13H6V14.625C6 14.8313 6.16875 15 6.375 15H7.625C7.83125 15 8 14.8313 8 14.625V13H9.625ZM15.75 14.75C14.9219 14.75 14.25 14.0781 14.25 13.25C14.25 12.4219 14.9219 11.75 15.75 11.75C16.5781 11.75 17.25 12.4219 17.25 13.25C17.25 14.0781 16.5781 14.75 15.75 14.75ZM16.75 10.75C16.75 11.5781 17.4219 12.25 18.25 12.25C19.0781 12.25 19.75 11.5781 19.75 10.75C19.75 9.92188 19.0781 9.25 18.25 9.25C17.4219 9.25 16.75 9.92188 16.75 10.75Z" fill="white"/>
</mask>
<g mask="url(#mask0)">
<g id="&#240;&#159;&#142;&#168; color">
<rect id="&#240;&#159;&#142;&#168; Color" width="24" height="24" fill="black"/>
</g>
</g>
</g>
</svg>
