<svg width="24" height="24" viewBox="0 0 24 24" fill="none" xmlns="http://www.w3.org/2000/svg">
<g id="newspaper">
<mask id="mask0" mask-type="alpha" maskUnits="userSpaceOnUse" x="2" y="5" width="20" height="14">
<path id="newspaper_2" fill-rule="evenodd" clip-rule="evenodd" d="M21.1667 5.33325H5.05556C4.59531 5.33325 4.22222 5.70634 4.22222 6.16659V6.44436H2.83333C2.37309 6.44436 2 6.81745 2 7.2777V16.7221C2 17.796 2.87056 18.6666 3.94444 18.6666H20.3333C21.2538 18.6666 22 17.9204 22 16.9999V6.16659C22 5.70634 21.6269 5.33325 21.1667 5.33325ZM3.94444 16.9999C3.79103 16.9999 3.66667 16.8756 3.66667 16.7221V8.11103H4.22222V16.7221C4.22222 16.8756 4.09786 16.9999 3.94444 16.9999ZM6.86111 16.4444H12.1389C12.369 16.4444 12.5556 16.2578 12.5556 16.0277V15.7499C12.5556 15.5198 12.369 15.3333 12.1389 15.3333H6.86111C6.63101 15.3333 6.44444 15.5198 6.44444 15.7499V16.0277C6.44444 16.2578 6.63101 16.4444 6.86111 16.4444ZM19.3611 16.4444H14.0833C13.8532 16.4444 13.6667 16.2578 13.6667 16.0277V15.7499C13.6667 15.5198 13.8532 15.3333 14.0833 15.3333H19.3611C19.5912 15.3333 19.7778 15.5198 19.7778 15.7499V16.0277C19.7778 16.2578 19.5912 16.4444 19.3611 16.4444ZM6.86111 13.111H12.1389C12.369 13.111 12.5556 12.9245 12.5556 12.6944V12.4166C12.5556 12.1865 12.369 11.9999 12.1389 11.9999H6.86111C6.63101 11.9999 6.44444 12.1865 6.44444 12.4166V12.6944C6.44444 12.9245 6.63101 13.111 6.86111 13.111ZM19.3611 13.111H14.0833C13.8532 13.111 13.6667 12.9245 13.6667 12.6944V12.4166C13.6667 12.1865 13.8532 11.9999 14.0833 11.9999H19.3611C19.5912 11.9999 19.7778 12.1865 19.7778 12.4166V12.6944C19.7778 12.9245 19.5912 13.111 19.3611 13.111ZM6.86111 9.7777H19.3611C19.5912 9.7777 19.7778 9.59113 19.7778 9.36103V7.97214C19.7778 7.74204 19.5912 7.55547 19.3611 7.55547H6.86111C6.63101 7.55547 6.44444 7.74204 6.44444 7.97214V9.36103C6.44444 9.59113 6.63101 9.7777 6.86111 9.7777Z" fill="white"/>
</mask>
<g mask="url(#mask0)">
<g id="&#240;&#159;&#142;&#168; color">
<rect id="&#240;&#159;&#142;&#168; Color" width="24" height="24" fill="black"/>
</g>
</g>
</g>
</svg>
